<svg xmlns="http://www.w3.org/2000/svg" viewBox="0 0 106.07 79.58"><defs><style>.cls-1{fill:#ffc72a;}.cls-2,.cls-4{fill:#1d486b;}.cls-2,.cls-3{stroke:#03325a;stroke-miterlimit:10;stroke-width:1.59px;}.cls-3,.cls-6{fill:#346682;}.cls-5{fill:#eb6d6a;}.cls-7{fill:#e26969;}.cls-8{fill:#03325a;}</style></defs><g id="katman_2" data-name="katman 2"><g id="Layer_1" data-name="Layer 1"><path class="cls-1" d="M9.31,35.14h85.9a5.06,5.06,0,0,1,5.06,5.06v8.08a5.06,5.06,0,0,1-5.06,5.06H9.31a0,0,0,0,1,0,0V35.14A0,0,0,0,1,9.31,35.14Z"/><path class="cls-2" d="M18.39,35.14H9.31V10.67a4.43,4.43,0,0,1,4.38-4.53h3a5,5,0,0,1,4.8,4.53l1.67,18.15C23.49,32.25,21.35,35.14,18.39,35.14Z"/><rect class="cls-3" x="31.44" y="31.66" width="10.82" height="14.61"/><path class="cls-4" d="M91.05,34.66V46.27H42.26V31.66H88.05a3,3,0,0,1,2.68,1.65A3.05,3.05,0,0,1,91.05,34.66Z"/><path class="cls-5" d="M105.28,58.08V78.79h-4.36c-3.91,0-7.85-3.38-9-8.24l-.61-2.65H14.73l-.61,2.65c-1.12,4.86-5.06,8.24-9,8.24H.79V.79H5A4.31,4.31,0,0,1,9.31,5.1V53.34h91.22a4.75,4.75,0,0,1,4.54,3.37A4.46,4.46,0,0,1,105.28,58.08Z"/><path class="cls-6" d="M91.05,34.66v9.92a5.84,5.84,0,0,1-.93.08,5.69,5.69,0,1,1,0-11.38c.2,0,.41,0,.61,0A3.05,3.05,0,0,1,91.05,34.66Z"/><path class="cls-7" d="M105.28,57.24V64.6a4.29,4.29,0,0,1-1.79.38,4.43,4.43,0,1,1,1.67-8.52A2.54,2.54,0,0,1,105.28,57.24Z"/><path class="cls-8" d="M106.07,79.58h-5.15c-4.39,0-8.58-3.81-9.74-8.85l-.47-2H15.36l-.46,2c-1.17,5-5.36,8.85-9.75,8.85H0V0H5a5.1,5.1,0,0,1,5.1,5.1V52.54h90.43a5.58,5.58,0,0,1,5.3,3.94,5.35,5.35,0,0,1,.24,1.6Zm-92-12.47H92l.75,3.26c1,4.35,4.53,7.63,8.2,7.63h3.56V58.08a3.66,3.66,0,0,0-.17-1.14,4,4,0,0,0-3.78-2.81h-92V5.1A3.52,3.52,0,0,0,5,1.59H1.59V78H5.15c3.67,0,7.2-3.28,8.2-7.63Z"/><path class="cls-8" d="M91.84,47.07H41.46V30.87H88.05A3.78,3.78,0,0,1,91.44,33a3.7,3.7,0,0,1,.4,1.7ZM43.05,45.48H90.26V34.66a2.13,2.13,0,0,0-.24-1,2.19,2.19,0,0,0-2-1.21h-45Z"/></g></g></svg>