<svg xmlns="http://www.w3.org/2000/svg" version="1.1" baseProfile="full" viewBox="0 0 35.347 17.276">
    <path fill="#ededed" transform="translate(-13.615 -30.266)" d="M47.983,44.407a1.036,1.036,0,0,0,.979-1.079v-.279a1.036,1.036,0,0,0-.979-1.079H19.859a1.036,1.036,0,0,0-.979,1.079v.279a1.036,1.036,0,0,0,.979,1.079H23.3a.874.874,0,1,1,0,1.735H21.044c-.538,0-.979.315-.979.7s.441.7.979.7H47.462c.538,0,.979-.315.979-.7s-.441-.7-.979-.7h-.99a.874.874,0,1,1,0-1.735Z"/>
    <g fill="#42566b">
        <g transform="translate(.505 4.033)">
            <path transform="translate(-1.81 -14.46)" d="M5.5,14.962H2.061a.251.251,0,0,1,0-.5H5.5a.251.251,0,0,1,0,.5Z"/>
        </g>
        <g transform="translate(0 7.744)">
            <path transform="translate(0 -27.77)" d="M4.2,28.272H.251a.251.251,0,1,1,0-.5H4.194a.251.251,0,0,1,0,.5Z"/>
        </g>
        <g transform="translate(1.277 5.89)">
            <path transform="translate(-4.58 -21.12)" d="M7.5,21.622H4.831a.251.251,0,0,1,0-.5H7.5a.251.251,0,0,1,0,.5Z"/>
        </g>
    </g>
    <g transform="translate(10.901 9.975)">
        <path fill="#42566b" transform="translate(-39.096 -35.769)" d="m39.16 38.578a2.284 2.284 0 1 0 1.7 -2.747 2.284 2.284 0 0 0 -1.7 2.747z"/>
        <path fill="#4d6276" transform="translate(-39.089 -36.758)" d="M42.651,40.433A2.283,2.283,0,0,1,40.11,37.14a2.282,2.282,0,1,0,3.277,2.97A2.22,2.22,0,0,1,42.651,40.433Z"/>
        <circle fill="#fff" transform="translate(1.576 1.576)" cx=".708" cy=".708" r=".708"/>
    </g>
    <g transform="translate(25.754 9.975)">
        <path fill="#42566b" transform="translate(-92.356 -35.768)" d="m92.476 38.772a2.282 2.282 0 1 0 1.445 -2.886 2.282 2.282 0 0 0 -1.445 2.886z"/>
        <path fill="#4d6276" transform="translate(-92.351 -37.075)" d="M96.029,40.631a2.28,2.28,0,0,1-2.822-3.051,2.28,2.28,0,1,0,3.528,2.663A2.278,2.278,0,0,1,96.029,40.631Z"/>
        <circle fill="#fff" transform="translate(1.575 1.576)" cx=".708" cy=".708" r=".708"/>
    </g>
    <path fill="#eb6d6a" transform="translate(-14.869 -.599)" d="m20.63 5.783v6.651a1.039 1.039 0 0 0 1.049 1.129h3.254v-0.706a3.123 3.123 0 1 1 6.247 0v0.7l8.564-6e-3s0-0.457 0-0.7a3.123 3.123 0 1 1 6.247 0v0.694h2.646c0.912 0 1.082-0.611 1.082-1.213 0 0 0.39-11.5-4.6-11.5h-22.11c-2.647 1e-3 -2.39 2.19-2.379 4.951zm20.506-3.65h3.74c3.143 0 3.3 7.647 3.3 7.647 0 0.151-0.047 0.276-0.276 0.276-1.107 0-3.74-3.564-6.765-4.066v-3.858zm-6.28 0h5.368v3.8h-5.369zm-6.28 0h5.368v3.8h-5.369zm-5.558 0h4.643v3.8h-5.436a0.266 0.266 0 0 1 -0.276 -0.276c3e-3 -2.521-0.164-3.525 1.068-3.525z"/>
    <g fill="#d65f5f" transform="translate(5.762 11.749)">
        <path transform="translate(-47.717 -42.137)" d="M58.18,42.143a2.318,2.318,0,0,1,.084.608v.6l8.564-.006s0-.39,0-.6a2.318,2.318,0,0,1,.084-.608H58.18Z"/>
        <path transform="translate(-20.66 -42.13)" d="m20.66 42.136v0.245a0.943 0.943 0 0 0 1.049 0.965h3.254v-0.605a2.318 2.318 0 0 1 0.084 -0.608h-4.387z"/>
        <path transform="translate(-86.023 -42.144)" d="m111.3 42.15a2.318 2.318 0 0 1 0.084 0.608v0.594h2.646c0.912 0 1.082-0.524 1.082-1.037 0 0 0-0.059 6e-3 -0.162h-3.818z"/>
    </g>
    <path fill="#42566b" transform="translate(-14.259)" d="m46.867 1.037a3.185 3.185 0 0 0 -2.359 -1.037h-22.108a2.491 2.491 0 0 0 -1.866 0.633c-0.789 0.8-0.772 2.234-0.756 3.9 0 0.215 6e-3 0.432 6e-3 0.653v6.651a1.268 1.268 0 0 0 1.282 1.363h3.488v-0.943a2.888 2.888 0 0 1 5.775 0v0.94l9.035-6e-3v-0.234s0-0.457 0-0.7a2.888 2.888 0 0 1 5.775 0v0.928h2.881c1.09 0 1.316-0.786 1.316-1.439 0.022-0.321 0.247-7.9-2.469-10.709zm2.008 10.7c0 0.694-0.245 0.976-0.845 0.976h-2.412v-0.457a3.358 3.358 0 0 0 -6.715 0v0.463l-8.093 6e-3v-0.469a3.358 3.358 0 1 0 -6.715 0v0.471h-3.02a0.8 0.8 0 0 1 -0.812 -0.892v-6.651c0-0.223 0-0.443-6e-3 -0.655-0.017-1.559-0.031-2.906 0.619-3.564a2.063 2.063 0 0 1 1.524 -0.494h22.108a2.68 2.68 0 0 1 1.765 0.655 2.941 2.941 0 0 1 0.257 0.24c0.02 0.022 0.042 0.045 0.061 0.067 2.509 2.719 2.287 10.221 2.284 10.305z"/>
    <g transform="translate(6.839 1.297)">
        <path fill="#dcefef" transform="translate(-24.887 -5.011)" d="M25.4,9.141a.359.359,0,0,1-.371-.371c0-.284,0-.549,0-.8-.011-1.4-.02-2.167.368-2.554a1.056,1.056,0,0,1,.8-.268H30.94V9.138H25.4Z"/>
        <path fill="#42566b" transform="translate(-24.525 -4.65)" d="M30.435,4.929V8.638H25.042a.221.221,0,0,1-.231-.231c0-.284,0-.549,0-.8-.011-1.313-.02-2.105.329-2.454a.912.912,0,0,1,.7-.223h4.6m.279-.279h-4.88a1.186,1.186,0,0,0-.9.307c-.427.429-.421,1.219-.407,2.652,0,.248,0,.513,0,.8a.5.5,0,0,0,.51.51h5.672V4.65Z"/>
    </g>
    <g transform="translate(26.033 1.297)">
        <path fill="#dcefef" transform="translate(-93.718 -5.011)" d="M100.717,13.265c-.48,0-1.18-.586-2.066-1.327l-.379-.315-.287-.237c-.125-.1-.257-.206-.388-.307a14.1,14.1,0,0,0-1.255-.9c-.123-.078-.248-.151-.376-.223s-.265-.148-.4-.215a5.7,5.7,0,0,0-1.626-.552L93.86,9.18V5.15H97.7a1.927,1.927,0,0,1,1.261.477,2.938,2.938,0,0,1,.349.349,3.671,3.671,0,0,1,.282.382c1.4,2.153,1.495,6.356,1.5,6.534a.36.36,0,0,1-.092.279.373.373,0,0,1-.276.095Z"/>
        <path fill="#42566b" transform="translate(-93.35 -4.65)" d="M97.332,4.929a1.758,1.758,0,0,1,1.174.446,2.484,2.484,0,0,1,.332.332,3.36,3.36,0,0,1,.271.365c1.375,2.117,1.472,6.283,1.475,6.461a.225.225,0,0,1-.05.176.247.247,0,0,1-.184.056c-.429,0-1.113-.572-1.977-1.294l-.064-.053c-.089-.075-.181-.151-.276-.229l-.059-.047-.268-.22c-.128-.1-.257-.206-.388-.307a15.513,15.513,0,0,0-1.269-.906c-.131-.081-.259-.156-.376-.223-.139-.081-.276-.153-.407-.218a5.911,5.911,0,0,0-1.631-.561V4.929h3.7m0-.279H93.35V8.942l.2.033a5.53,5.53,0,0,1,1.59.541c.131.064.265.134.393.209s.248.142.368.218a14.758,14.758,0,0,1,1.244.89c.131.1.259.2.385.3l.326.268c.117.095.229.19.34.282.945.789,1.629,1.358,2.156,1.358h.006a.511.511,0,0,0,.374-.134.528.528,0,0,0,.134-.382c-.006-.24-.114-4.44-1.52-6.607a3.931,3.931,0,0,0-.293-.4,2.85,2.85,0,0,0-.365-.368,2.083,2.083,0,0,0-1.35-.508Z"/>
    </g>
    <rect fill="#dcefef" transform="translate(19.892 1.436)" width="5.561" height="3.988"/>
    <path fill="#42566b" transform="translate(-51.077 -3.353)" d="M76.388,4.929V8.638H71.109V4.929h5.279m.279-.279H70.83V8.917h5.84V4.65Z"/>
    <rect fill="#dcefef" transform="translate(13.609 1.436)" width="5.561" height="3.988"/>
    <path fill="#42566b" transform="translate(-34.83 -3.353)" d="M53.861,4.929V8.638H48.579V4.929h5.282m.279-.279H48.3V8.917h5.84V4.65Z"/>
</svg>
