<svg xmlns="http://www.w3.org/2000/svg" viewBox="0 0 134.08 60.49"><defs><style>.cls-1{isolation:isolate;}.cls-2{fill:#96d0f0;opacity:0.24;}.cls-3{fill:#eb6d6a;}.cls-27,.cls-28,.cls-29,.cls-31,.cls-4,.cls-8{fill:none;}.cls-5{fill:#c1c1c1;}.cls-6{fill:#f7f6d7;}.cls-7{fill:#d6d6d6;}.cls-8{stroke:#545454;stroke-width:0.92px;}.cls-27,.cls-28,.cls-29,.cls-31,.cls-8{stroke-linecap:round;}.cls-23,.cls-27,.cls-28,.cls-29,.cls-31,.cls-8{stroke-miterlimit:10;}.cls-11,.cls-13,.cls-17,.cls-18,.cls-21,.cls-23,.cls-30,.cls-35,.cls-8{mix-blend-mode:screen;}.cls-9{fill:#2e5a73;}.cls-10,.cls-11{fill:#defdff;}.cls-12{fill:#346682;}.cls-13{fill:#1a1a1a;}.cls-14{fill:#e66b5d;}.cls-15{fill:#f2f2f2;}.cls-15,.cls-19,.cls-26{mix-blend-mode:multiply;}.cls-16{fill:#f5ca7f;}.cls-17{fill:#545454;}.cls-18{fill:#262626;}.cls-19{fill:#e6e6e6;}.cls-20{fill:#4f4f4f;}.cls-22{fill:#121212;}.cls-23{fill:#171717;stroke:#231f20;stroke-width:0.38px;}.cls-24{fill:#d1cece;}.cls-25,.cls-26{fill:#e2dfdf;}.cls-27{stroke:#616161;stroke-width:3.68px;}.cls-28{stroke:#7d7d7d;stroke-width:1.53px;}.cls-29,.cls-31{stroke:#d16154;}.cls-29{stroke-width:2.79px;}.cls-30{fill:#4d4d4d;}.cls-31{stroke-width:1.03px;}.cls-32{fill:#cf6054;}.cls-33{fill:#d16154;}.cls-34,.cls-35{fill:#1d486b;}.cls-36{fill:#f57263;}</style></defs><g class="cls-1"><g id="katman_2" data-name="katman 2"><g id="Layer_1" data-name="Layer 1"><path class="cls-2" d="M95.07,31.19c-.64,1.07.3,2.81,2.1,3.89s3.77,1.09,4.41,0-.31-2.81-2.1-3.89S95.7,30.13,95.07,31.19Z"/><path class="cls-3" d="M2.7,37.26A53,53,0,0,1,4.83,26.19c.62-2,1.4-4.58,2.87-6A8.19,8.19,0,0,1,10,18.55a25.68,25.68,0,0,1,6.55-10,26.54,26.54,0,0,1,5.49-3.87c5.4-2.85,9.86-2.57,25.2-2.82h0c7.6,0,15.92.09,22.3.91a25.81,25.81,0,0,1,4.66,1A29,29,0,0,1,77.8,5.22a51.05,51.05,0,0,1,5.77,3.13c3.14,2,9.76,6.64,18.21,13.14,0,0,10.89,1.44,14.69,2.65C119.29,25,126,27.5,129,32.07a17.63,17.63,0,0,1,1.76,3.56,19.52,19.52,0,0,1,.89,5.58,58.2,58.2,0,0,1,0,6.78v0a1.21,1.21,0,0,1,.93,1c0,.83,0,2.92,0,2.92s-.09.42-.25.47-4.31.68-5.19.69c-.66,0-4.77.24-6.87.36A12.78,12.78,0,1,0,96,48.09a9.93,9.93,0,0,0,1.22,4.78H34.61l-2.09-.11a9.83,9.83,0,0,0,1.17-4.67,12.77,12.77,0,1,0-25.53,0A12.55,12.55,0,0,0,8.49,51c-4.28-1.3-5.25-1.57-5.6-4.72A65.43,65.43,0,0,1,2.7,37.26Z"/><path class="cls-4" d="M52.71,5.79a1.16,1.16,0,0,1,1.18-1.15,109.13,109.13,0,0,1,13.75.77,30.71,30.71,0,0,1,5.79,1.28A30,30,0,0,1,78.6,9.05c5.11,2.84,8.71,5,11.73,8.16,1.06,1.09,2.08,2.31,1.73,3.36a2.54,2.54,0,0,1-1.75,1.32,1.11,1.11,0,0,1-.36,0L53.83,20.77a1.16,1.16,0,0,1-1.12-1.15Z"/><path class="cls-5" d="M114,23.71a26.28,26.28,0,0,1,9.78,3s4.7,2.57,6.29,6.2c.16.38.59,1.37.18,1.85-.21.25-.57.27-1.14.25a9.85,9.85,0,0,1-4.48-.85,9.6,9.6,0,0,1-1.48-.9c-2.43-1.73-2.52-2.87-4-4.07-2.64-2.08-5.07-.7-6.42-2.84-.13-.21-.84-1.35-.36-2.09S113.84,23.7,114,23.71Z"/><path class="cls-6" d="M122.83,30a4,4,0,0,1,1.45-2.95c1.24.76,4.39,2.92,5.7,5.75a4.05,4.05,0,0,1-7.15-2.8Z"/><path class="cls-7" d="M120.31,28.62a3.79,3.79,0,0,1-3.62-3.95,4,4,0,0,1,.06-.51,25.57,25.57,0,0,1,7,2.57A3.79,3.79,0,0,1,120.31,28.62Z"/><path class="cls-8" d="M129.5,33.88a21.07,21.07,0,0,0-6-6.43c-3.75-2.46-9.31-3-9.31-3"/><path class="cls-9" d="M2.77,53.49H131.31a2.77,2.77,0,0,0,2.77-2.78h0a2.78,2.78,0,0,0-2.77-2.78H2.77A2.78,2.78,0,0,0,0,50.71H0A2.77,2.77,0,0,0,2.77,53.49Z"/><path class="cls-10" d="M49.57,5.79a1.15,1.15,0,0,1,1.17-1.15,108.79,108.79,0,0,1,13.75.77,30.84,30.84,0,0,1,5.8,1.28,29.49,29.49,0,0,1,5.16,2.36c5.11,2.84,8.71,5,11.73,8.16,1.07,1.09,2.09,2.31,1.73,3.36a2.52,2.52,0,0,1-1.75,1.32,1,1,0,0,1-.35,0L50.69,20.77a1.15,1.15,0,0,1-1.12-1.15Z"/><path class="cls-11" d="M85.06,20.53c.66-.2,1-.46,1-.62s-.1-.82-1.42-2.18c-2.7-2.79-5.93-4.82-11-7.6A26.06,26.06,0,0,0,68.94,8a27.45,27.45,0,0,0-5.35-1.18,98.3,98.3,0,0,0-13-.73.11.11,0,0,0-.11.1V19.33a.1.1,0,0,0,.1.1l34.45,1.1Z"/><path class="cls-11" d="M51.8,14.93h0a.63.63,0,0,0,.63-.63V7.49a.63.63,0,0,0-.63-.63h0a.63.63,0,0,0-.63.63V14.3A.63.63,0,0,0,51.8,14.93Z"/><path class="cls-11" d="M51.8,14.93h0a.63.63,0,0,0,.63-.63V9.91a.63.63,0,0,0-.63-.63h0a.63.63,0,0,0-.63.63V14.3A.63.63,0,0,0,51.8,14.93Z"/><path class="cls-11" d="M51.8,14.93h0a.63.63,0,0,0,.63-.63v-1a.63.63,0,0,0-.63-.63h0a.63.63,0,0,0-.63.63v1A.63.63,0,0,0,51.8,14.93Z"/><path class="cls-11" d="M51.8,18.74h0a.63.63,0,0,0,.63-.63v-.95a.63.63,0,0,0-.63-.63h0a.63.63,0,0,0-.63.63v.95A.63.63,0,0,0,51.8,18.74Z"/><path class="cls-10" d="M16.19,14.62a21.8,21.8,0,0,1,3.09-4,22.08,22.08,0,0,1,4.46-3.47c4.4-2.55,8-2.3,20.5-2.52h.83a1.23,1.23,0,0,1,1.17,1.29V19.31A1.24,1.24,0,0,1,45,20.61l-26.48-.94C16.24,19.59,14.92,16.75,16.19,14.62Z"/><path class="cls-11" d="M45.07,19.68a.24.24,0,0,0,.22-.25V6a.23.23,0,0,0-.22-.24h-.83l-3.75.06C31.08,6,27.9,6,24.19,8.17a20.43,20.43,0,0,0-4.26,3.3A21.23,21.23,0,0,0,17,15.32a2.35,2.35,0,0,0-.11,2.23,2,2,0,0,0,1.71,1.19Z"/><path class="cls-11" d="M43.44,14.93h0A.61.61,0,0,0,44,14.3V7.49a.61.61,0,0,0-.58-.63h0a.6.6,0,0,0-.57.63V14.3A.6.6,0,0,0,43.44,14.93Z"/><path class="cls-11" d="M43.44,14.93h0A.61.61,0,0,0,44,14.3V9.91a.61.61,0,0,0-.58-.63h0a.6.6,0,0,0-.57.63V14.3A.6.6,0,0,0,43.44,14.93Z"/><path class="cls-11" d="M43.44,14.93h0A.61.61,0,0,0,44,14.3v-1a.61.61,0,0,0-.58-.63h0a.6.6,0,0,0-.57.63v1A.6.6,0,0,0,43.44,14.93Z"/><path class="cls-11" d="M43.44,18.74h0a.61.61,0,0,0,.58-.63v-.95a.61.61,0,0,0-.58-.63h0a.6.6,0,0,0-.57.63v.95A.6.6,0,0,0,43.44,18.74Z"/><path class="cls-12" d="M38.63,50.71H91.07a1.06,1.06,0,0,0,1.06-1.06h0a1.07,1.07,0,0,0-1.06-1.07H38.63a1.07,1.07,0,0,0-1.06,1.07h0A1.06,1.06,0,0,0,38.63,50.71Z"/><path class="cls-13" d="M125.48,50.71h5.23a1.06,1.06,0,0,0,1.06-1.06h0a1.07,1.07,0,0,0-1.06-1.07h-5.23a1.07,1.07,0,0,0-1.07,1.07h0A1.06,1.06,0,0,0,125.48,50.71Z"/><path class="cls-13" d="M2.83,50.71H5.24a1.06,1.06,0,0,0,1.07-1.06h0a1.07,1.07,0,0,0-1.07-1.07H2.83a1.07,1.07,0,0,0-1.06,1.07h0A1.06,1.06,0,0,0,2.83,50.71Z"/><rect class="cls-14" x="114.47" y="36.64" width="18.36" height="6.18" rx="1.77" transform="translate(247.3 79.46) rotate(180)"/><rect class="cls-14" x="0.2" y="36.64" width="15.28" height="6.46" rx="1.65" transform="translate(15.69 79.73) rotate(180)"/><path class="cls-15" d="M132.83,39.73v1.32a1.76,1.76,0,0,1-1.76,1.77H116.24a1.77,1.77,0,0,1-1.77-1.77V39.73Z"/><rect class="cls-16" x="125.2" y="43.79" width="5.63" height="3.06" rx="1.53" transform="translate(256.03 90.65) rotate(180)"/><rect class="cls-17" x="126.06" y="44.25" width="3.95" height="1.06" rx="0.53" transform="translate(256.06 89.57) rotate(180)"/><rect class="cls-16" x="1.22" y="37.64" width="5.63" height="3.06" rx="1.53" transform="translate(8.08 78.35) rotate(180)"/><rect class="cls-17" x="2.08" y="38.1" width="3.95" height="1.06" rx="0.53" transform="translate(8.11 77.27) rotate(180)"/><path class="cls-18" d="M122.9,39.17H131a.94.94,0,0,0,.94-.94h0a.94.94,0,0,0-.94-.95H122.9a.94.94,0,0,0-.94.95h0A.94.94,0,0,0,122.9,39.17Z"/><path class="cls-19" d="M101.39,36.64,93.67,47.93H89.43a19,19,0,0,1,34.44-11.29Z"/><path class="cls-19" d="M28.51,36.64l7.72,11.29h4.24A19,19,0,0,0,6,36.64Z"/><ellipse class="cls-20" cx="108.49" cy="47.93" rx="12.52" ry="12.56"/><g class="cls-21"><path class="cls-22" d="M108.25,59a.84.84,0,0,0,.83-.8.84.84,0,0,0-.79-.88,9.59,9.59,0,0,1-6.92-3.41A.84.84,0,1,0,100.1,55a11.43,11.43,0,0,0,8.1,4Z"/></g><ellipse class="cls-23" cx="108.49" cy="47.93" rx="8.04" ry="8.07"/><path class="cls-24" d="M102.51,47.93a6,6,0,1,0,6-6A6,6,0,0,0,102.51,47.93Z"/><path class="cls-25" d="M103.67,47.93a4.82,4.82,0,1,0,4.82-4.83A4.83,4.83,0,0,0,103.67,47.93Z"/><path class="cls-26" d="M105.34,47.93a3.16,3.16,0,1,0,3.15-3.16A3.16,3.16,0,0,0,105.34,47.93Z"/><path class="cls-27" d="M120.28,52.83a13,13,0,1,0-24.76-5.45,12.93,12.93,0,0,0,1.38,5.85"/><path class="cls-28" d="M121.47,47.38a13.57,13.57,0,0,0-.3-2.8,13,13,0,0,0-12.68-10.22"/><path class="cls-28" d="M95.52,47.38A13,13,0,0,1,100.65,37"/><path class="cls-20" d="M9,47.93A12.52,12.52,0,1,0,21.53,35.37,12.54,12.54,0,0,0,9,47.93Z"/><g class="cls-21"><path class="cls-22" d="M21.29,59a.84.84,0,0,0,.83-.8.84.84,0,0,0-.79-.88,9.59,9.59,0,0,1-6.92-3.41A.84.84,0,0,0,13.14,55a11.43,11.43,0,0,0,8.1,4Z"/></g><path class="cls-23" d="M13.49,47.93a8,8,0,1,0,8-8.06A8.05,8.05,0,0,0,13.49,47.93Z"/><path class="cls-24" d="M15.55,47.93a6,6,0,1,0,6-6A6,6,0,0,0,15.55,47.93Z"/><path class="cls-25" d="M16.71,47.93a4.82,4.82,0,1,0,4.82-4.83A4.83,4.83,0,0,0,16.71,47.93Z"/><path class="cls-26" d="M18.38,47.93a3.16,3.16,0,1,0,3.15-3.16A3.16,3.16,0,0,0,18.38,47.93Z"/><path class="cls-27" d="M33.32,52.83A13,13,0,1,0,8.56,47.38a12.93,12.93,0,0,0,1.38,5.85"/><path class="cls-28" d="M34.51,47.38a13.57,13.57,0,0,0-.3-2.8A13,13,0,0,0,21.53,34.36"/><path class="cls-28" d="M8.56,47.38A13,13,0,0,1,13.69,37"/><path class="cls-15" d="M91.19,29.29a20.26,20.26,0,0,0-8.26,13.54,4.75,4.75,0,0,1-4.69,4l-23.41-.12a5,5,0,0,1-4.95-4.29,91.73,91.73,0,0,1-.68-15.31A3.75,3.75,0,0,1,53,23.44c14,.09,30.2.39,36.64.52a2.92,2.92,0,0,1,2.85,2.92h0A2.93,2.93,0,0,1,91.19,29.29Z"/><path class="cls-29" d="M110.65,28.93s-18.93-2.35-21.22,19"/><path class="cls-29" d="M19.25,28.93s18.93-2.35,21.22,19"/><path class="cls-16" d="M3.18,22.53H4.67a2.69,2.69,0,0,1,2.69,2.69v3a2.69,2.69,0,0,1-2.69,2.69H3.18A1.57,1.57,0,0,1,1.6,29.3V24.11A1.57,1.57,0,0,1,3.18,22.53Z" transform="translate(8.96 53.41) rotate(180)"/><path class="cls-30" d="M2.92,29.25h0a.89.89,0,0,0,.89-.89V25a.89.89,0,0,0-.89-.89h0A.89.89,0,0,0,2,25v3.32A.89.89,0,0,0,2.92,29.25Z"/><path class="cls-31" d="M66.45,46.39l-11.62-.06a5,5,0,0,1-4.95-4.15,85.81,85.81,0,0,1-.68-14.81A3.69,3.69,0,0,1,53,23.82"/><rect class="cls-32" x="51.49" y="25.49" width="7.47" height="2.62" rx="1.15" transform="translate(110.45 53.59) rotate(180)"/><path class="cls-15" d="M59,26.64V27a1.15,1.15,0,0,1-1.14,1.15H52.64A1.15,1.15,0,0,1,51.49,27v-.32c0-.05,0-.09,0-.14H59C59,26.55,59,26.59,59,26.64Z"/><path class="cls-33" d="M44.49,47H82.8a1,1,0,0,0,1-1h0a1,1,0,0,0-1-1H44.49a1,1,0,0,0-1,1h0A1,1,0,0,0,44.49,47Z"/><path class="cls-10" d="M101.78,21.49h-4.6a6.76,6.76,0,0,1-5.1-2.33A50.35,50.35,0,0,0,74.72,6.74a.51.51,0,0,1,.21-1h4S88.72,10.56,101.78,21.49Z"/><path class="cls-15" d="M17.46,25.16h28a.82.82,0,0,0,.82-.81h0a.82.82,0,0,0-.82-.82h-28a.82.82,0,0,0-.82.82h0A.82.82,0,0,0,17.46,25.16Z"/><path class="cls-34" d="M60.93,3h4.65a1.48,1.48,0,0,0,1.48-1.48h0A1.49,1.49,0,0,0,65.58,0H60.93a1.49,1.49,0,0,0-1.48,1.49h0A1.48,1.48,0,0,0,60.93,3Z"/><path class="cls-35" d="M60.93,0h4.65a1.49,1.49,0,0,1,1.48,1.49H59.45A1.49,1.49,0,0,1,60.93,0Z"/><path class="cls-34" d="M35.53,3h4.64a1.48,1.48,0,0,0,1.48-1.48h0A1.49,1.49,0,0,0,40.17,0H35.53a1.49,1.49,0,0,0-1.48,1.49h0A1.48,1.48,0,0,0,35.53,3Z"/><path class="cls-35" d="M35.53,0h4.64a1.49,1.49,0,0,1,1.48,1.49h-7.6A1.49,1.49,0,0,1,35.53,0Z"/><rect class="cls-36" x="16.91" y="3" width="16.61" height="2.56" rx="1.25" transform="translate(50.75 5.64) rotate(173.4)"/><path class="cls-10" d="M19.44,6.23h0a1.06,1.06,0,0,1,.77,1.85c-2.32,2.07-5.64,5.53-7.21,9.58a1.93,1.93,0,0,1-2.45,1.11l-.63-.22A25.2,25.2,0,0,1,19.44,6.23Z"/></g></g></g></svg>