<svg xmlns="http://www.w3.org/2000/svg" width="593.271" height="266.976" viewBox="0 0 593.271 266.976">
  <g id="Group_23928" data-name="Group 23928" transform="translate(-16337 -482.066)">
    <g id="ferry-boat_5" data-name="ferry-boat 5" transform="translate(16337 482.066)">
      <g id="Group_23923" data-name="Group 23923" transform="translate(0 0)">
        <g id="filled_outline_3_">
          <path id="Path_11401" data-name="Path 11401" d="M148.32,301.58H514.178l-59.329-79.1H177.984Z" transform="translate(-69.226 -163.147)" fill="#ea6d6a"/>
          <path id="Path_11402" data-name="Path 11402" d="M405.41,222.476h59.328l-39.552-49.44H395.521Z" transform="translate(-266.987 -163.147)" fill="#336782"/>
          <path id="Path_11403" data-name="Path 11403" d="M36.259,301.58H570.213l-72.509,79.1H9.888Z" transform="translate(13.171 -163.147)" fill="#ea6d6a"/>
          <path id="Path_11404" data-name="Path 11404" d="M82.4,420.236l13.181-39.552H583.394l-36.259,39.552Z" transform="translate(-72.519 -163.147)" fill="#2e5b73"/>
          <path id="Path_11405" data-name="Path 11405" d="M442.984,202.7,458.8,222.476H399.477L395.521,202.7Z" transform="translate(-261.054 -163.147)" fill="#2e5b73"/>
          <path id="Path_11406" data-name="Path 11406" d="M40.056,298.455a9.876,9.876,0,0,1,9.374-6.763H72.242L99.493,219a9.9,9.9,0,0,1,9.265-6.407h17.6l-7.515-37.575a9.9,9.9,0,0,1,7.713-11.668,10.208,10.208,0,0,1,1.978-.2H158.2a9.9,9.9,0,0,1,7.723,3.708l36.586,45.732h24.908v-49.44h19.776v49.44H385.623a9.878,9.878,0,0,1,7.91,3.955l56.362,75.149H583.384a9.888,9.888,0,0,1,7.287,16.572L481.9,426.919a9.92,9.92,0,0,1-7.287,3.2H9.878A9.9,9.9,0,0,1,.5,417.11Zm113.4-115.531H140.6l5.933,29.664h30.653Zm256.891,88.992H276.855V252.14H395.511l-14.832-19.776H115.611L93.363,291.692H425.175Zm150.565,39.552H56.559L36.783,370.8H506.524Zm-90.633,98.88L488.4,390.572H30.189L23.6,410.348H470.275Z" transform="translate(0 -163.147)" fill="#1c486b"/>
          <rect id="Rectangle_1733" data-name="Rectangle 1733" width="19.776" height="19.776" transform="translate(237.303 88.993)" fill="#ddefef"/>
          <rect id="Rectangle_1734" data-name="Rectangle 1734" width="19.776" height="19.776" transform="translate(197.751 88.993)" fill="#ddefef"/>
          <rect id="Rectangle_1735" data-name="Rectangle 1735" width="19.776" height="19.776" transform="translate(158.199 88.993)" fill="#ddefef"/>
          <g id="Group_23926" data-name="Group 23926">
            <rect id="Rectangle_1729" data-name="Rectangle 1729" width="19.776" height="19.776" transform="translate(464.728 168.097)" fill="#ddefef"/>
            <rect id="Rectangle_1730" data-name="Rectangle 1730" width="19.776" height="19.776" transform="translate(425.176 168.097)" fill="#ddefef"/>
            <rect id="Rectangle_1731" data-name="Rectangle 1731" width="19.776" height="19.776" transform="translate(385.623 168.097)" fill="#ddefef"/>
            <rect id="Rectangle_1732" data-name="Rectangle 1732" width="19.776" height="19.776" transform="translate(346.071 168.097)" fill="#ddefef"/>
            <rect id="Rectangle_1736" data-name="Rectangle 1736" width="19.776" height="19.776" transform="translate(148.311 168.097)" fill="#ddefef"/>
            <rect id="Rectangle_1737" data-name="Rectangle 1737" width="19.776" height="19.776" transform="translate(108.758 168.097)" fill="#ddefef"/>
            <rect id="Rectangle_1738" data-name="Rectangle 1738" width="19.776" height="19.776" transform="translate(227.415 168.097)" fill="#ddefef"/>
            <rect id="Rectangle_1739" data-name="Rectangle 1739" width="19.776" height="19.776" transform="translate(266.967 168.097)" fill="#ddefef"/>
            <rect id="Rectangle_1740" data-name="Rectangle 1740" width="19.776" height="19.776" transform="translate(306.519 168.097)" fill="#ddefef"/>
            <rect id="Rectangle_1741" data-name="Rectangle 1741" width="19.776" height="19.776" transform="translate(187.863 168.097)" fill="#ddefef"/>
          </g>
        </g>
      </g>
    </g>
  </g>
</svg>
