<?xml version="1.0" encoding="utf-8"?>
<!-- Generator: Adobe Illustrator 23.0.1, SVG Export Plug-In . SVG Version: 6.00 Build 0)  -->
<svg version="1.1" id="Layer_1" xmlns="http://www.w3.org/2000/svg" xmlns:xlink="http://www.w3.org/1999/xlink" x="0px" y="0px"
	 viewBox="0 0 79.9 44" style="enable-background:new 0 0 79.9 44;" xml:space="preserve">
<style type="text/css">
	.st0{fill:#EDEDED;}
	.st1{fill:#1D3E4C;}
	.st2{fill:#2E5A73;}
	.st3{fill:#346682;}
	.st4{fill:#1D486B;}
	.st5{fill:#B8FBFF;}
	.st6{fill:#EB6D6A;}
	.st7{fill:#18334C;}
	.st8{fill:#DEFDFF;}
	.st9{fill:#FFFFFF;}
</style>
<g id="Group_1147" transform="translate(-1185 -448)">
	<g id="Group_369" transform="translate(1192.655 448.596)">
		<path id="Path_425" class="st0" d="M59.9,34.6L59.9,34.6L59.9,34.6z"/>
		<path id="Path_426" class="st0" d="M64.2,26.2L64.2,26.2z"/>
		<path id="Path_427" class="st0" d="M58.2,17.7L58.2,17.7L58.2,17.7z"/>
		<path id="Path_428" class="st0" d="M51.3,30.4L51.3,30.4L51.3,30.4z"/>
		<path id="Path_429" class="st0" d="M47,21.9L47,21.9L47,21.9z"/>
		<path id="Path_430" class="st0" d="M62,24H49.2C48,24,47,23.1,47,21.9l0,0c0-1.2,1-2.1,2.1-2.1h6.7c1.2,0,2.1-0.9,2.1-2.1
			s-0.9-2.1-2.1-2.1h-2.7c-1-3.5-2.9-6.7-5.5-9.2c-8.5-8.5-22.3-8.5-30.9,0c-1,1-1.9,2.1-2.7,3.2H6.5c-1.2,0-2.1,0.9-2.1,2.1
			s0.9,2.1,2.1,2.1h4.2c1.2,0,2.1,0.9,2.1,2.1c0,1.2-0.9,2.1-2.1,2.1l0,0H2.1C1,18,0,19,0,20.1c0,1.2,0.9,2.1,2.1,2.1H15
			c1.2,0,2.1,0.9,2.1,2.1c0,1.2-0.9,2.1-2.1,2.1H8.3c-1.2,0-2.1,0.9-2.1,2.1s0.9,2.1,2.1,2.1c0,0,0,0,0,0h4.1
			c5.1,11,18.1,15.8,29,10.7c2.3-1.1,4.4-2.5,6.3-4.3c0.1-0.1,0.2-0.2,0.3-0.3h9.7c1.2,0,2.1-0.9,2.1-2.1s-0.9-2.1-2.1-2.1h-4.2
			c-1.2,0-2.1-0.9-2.1-2.1v0c0-1.2,1-2.1,2.1-2.1H62c1.2,0,2.1-0.9,2.2-2.1C64.1,25,63.2,24,62,24z"/>
	</g>
	<g id="ucak_bileti" transform="translate(1185 448)">
		<path id="Path_431" class="st1" d="M53.3,2.3c1.5-1.3,6-2.5,8.2-1.9l0.3,0.9L62.5,1L63,3c-0.3,4.3-2.5,12.1-3.3,12.4
			C58.8,15.7,45.1,19,36,23.7C35.3,24,49.1,5.8,53.3,2.3z"/>
		<path id="Path_432" class="st2" d="M35.4,23.2C34.7,23.5,48.5,5.3,52.7,1.8c2-1.7,9.7-2.7,9.8-0.6c0.2,3.9-2.5,13.4-3.3,13.7
			S44.5,18.5,35.4,23.2z"/>
		<path id="Path_433" class="st3" d="M60.2,5.4c-0.1-1,0.1-2.1,0.6-3c0.4-0.6,1.1-1,1.8-1.2c0,0,0,0,0,0c-0.1,2.8-0.5,5.6-1.3,8.3
			C60.7,8.2,60.4,6.8,60.2,5.4z"/>
		<path id="Path_434" class="st4" d="M52.6,1.8c0.1-0.1,0.2-0.2,0.4-0.3c0,0.3,0,0.5,0,0.7c-0.1,1.7,0,3.4,0.3,5.1
			c0.4,3,1.6,5.8,3.6,8.2c-4.4,1.2-14.3,4-21.4,7.6C34.6,23.5,48.4,5.3,52.6,1.8z"/>
		<path id="Path_435" class="st5" d="M2,27c-2.4-8.5,1.4-8.1,2.6-6.3c1.1,1.7,6,5.3,8.3,5.1c0.9,0,1.9-0.2,2.7-0.6
			c5.5-3.2,11.1-6.1,17-8.6c15-6.4,28.6-11.7,39.2-8.8c10.8,3,8.6,12.1-3.6,17C55.4,30,29.9,36.7,19.7,37.5S5.9,34.8,5.9,34.8
			S3.8,33.4,2,27z"/>
		<path id="Path_436" class="st5" d="M2,27c-2.4-8.5,1.4-8.1,2.6-6.3c1.1,1.7,6,5.3,8.3,5.1c0.9,0,1.9-0.2,2.7-0.6
			c5.5-3.2,11.1-6.1,17-8.6c15-6.4,28.6-11.7,39.2-8.8c10.8,3,8.6,12.1-3.6,17C55.4,30,29.9,36.7,19.7,37.5S5.9,34.8,5.9,34.8
			S3.8,33.4,2,27z"/>
		<g id="Group_370" transform="translate(0 5.925)">
			<path id="Path_437" class="st6" d="M42,27.8c-9.5,2.4-17.6,4-22.2,4.4C9.8,32.9,6,29.7,5.5,29.3c-0.4-0.3-2.4-2-4.1-8
				c-0.9-3.4-1-5.7-0.3-7c0.3-0.5,0.7-0.9,1.2-1c1.1-0.2,2.2,0.3,2.8,1.3c1,1.5,5.7,5,7.8,4.9c0.5,0,1.1-0.1,1.6-0.2
				c0.3-0.1,0.6-0.2,0.9-0.4c5.5-3.2,11.2-6.1,17-8.6C39.6,7.1,47.2,4,54.2,2.2C61.3,0.3,67.1,0.1,72,1.4c4.6,1.3,7.2,3.7,7.4,6.8
				c0.2,4.2-4,8.5-11,11.3C59.8,22.8,50.9,25.6,42,27.8z"/>
			<path id="Path_438" class="st7" d="M2.5,13.8c0.8-0.1,1.7,0.3,2.1,1c1.1,1.7,6,5.2,8.3,5.1c0.6,0,1.1-0.1,1.7-0.2
				c0.4-0.1,0.7-0.2,1-0.4c5.5-3.2,11.1-6.1,17-8.6c7.7-3.3,15-6.3,21.8-8c6.4-1.6,12.3-2.2,17.4-0.7c10.7,3,8.6,12-3.6,16.9
				c-8.6,3.2-17.4,6-26.3,8.2c-8.8,2.3-17.2,4-22.1,4.4C9.5,32.3,5.9,28.8,5.9,28.8S3.8,27.4,2,21.1C0.5,16,1.4,14.1,2.5,13.8
				 M2.2,12.7L2.2,12.7c-0.7,0.2-1.3,0.7-1.6,1.3c-0.8,1.5-0.8,3.9,0.2,7.5c1.7,6,3.8,7.9,4.3,8.3c0.6,0.6,4.7,3.7,14.6,3
				c4.7-0.3,12.8-2,22.3-4.4c9-2.2,17.8-5,26.5-8.3c7.2-2.9,11.6-7.4,11.3-11.8c-0.2-4.6-5-6.6-7.8-7.4c-4.9-1.4-10.8-1.1-18,0.7
				c-7.1,1.8-14.7,5-21.9,8.1c-5.9,2.5-11.6,5.4-17.1,8.7c-0.2,0.1-0.5,0.2-0.7,0.3c-0.5,0.1-1,0.2-1.5,0.2c-0.6,0-1.9-0.4-3.9-1.7
				c-1.3-0.8-2.4-1.8-3.4-2.9C4.9,13,3.5,12.4,2.2,12.7L2.2,12.7z"/>
		</g>
		<path id="Path_439" class="st8" d="M71.9,14.1c-2.7,0.8-5.5,1.2-8.3,1.3c-5.3,0-4-4.1-2.1-7.9C65,7.1,68.5,7.2,72,8.1
			c3.3,0.9,5.4,2.4,6.3,4.2C76.1,12.9,74,13.6,71.9,14.1z"/>
		<path id="Path_440" class="st9" d="M71.9,14.1c-0.1,0-0.1,0-0.2,0c-0.9-0.4-1.8-0.9-2.7-1.3c-2.6-1.3-5-3.1-6.9-5.3
			c0.7-0.1,1.4-0.1,2.1-0.2C65,8,65.9,8.6,66.7,9.2c1.7,1.1,3.4,2.2,5.3,3c0.9,0.4,1.7,0.8,2.6,1.2C73.7,13.6,72.8,13.9,71.9,14.1z"
			/>
		<path id="Path_441" class="st9" d="M60.9,8.7c0.2-0.4,0.4-0.8,0.5-1.1c0,0,0.1,0,0.1,0c2,2.4,4.4,4.3,7.2,5.7
			c0.7,0.4,1.5,0.8,2.2,1.1c-0.7,0.2-1.5,0.4-2.2,0.5C65.8,13.4,63.1,11.3,60.9,8.7z"/>
		<g id="Group_371" transform="translate(25.407 13.403)">
			<path id="Path_442" class="st8" d="M25.9,1.3C26.2,0.6,27,0,27.8,0c0.7,0,1.3,0.9,1.5,1.9c0.2,1,0.2,1.9-0.8,2.2s-1.8,0-2.2-0.7
				C26,2.7,25.8,2,25.9,1.3z"/>
			<path id="Path_443" class="st8" d="M19.5,3.2c0.3-0.8,1.1-1.3,1.9-1.3c0.7,0,1.3,0.9,1.5,1.9s0.2,1.9-0.8,2.2s-1.8,0-2.2-0.7
				C19.6,4.5,19.4,3.9,19.5,3.2z"/>
			<path id="Path_444" class="st8" d="M13.9,5.3c0.3-0.7,0.9-1.1,1.7-1.1c0.6,0,1.1,0.8,1.3,1.6s0.2,1.6-0.7,1.9s-1.6,0-1.9-0.6
				C13.9,6.4,13.8,5.9,13.9,5.3z"/>
			<path id="Path_445" class="st8" d="M8.8,7C9,6.4,9.6,6,10.3,6c0.5,0,1,0.7,1.2,1.5s0.2,1.5-0.7,1.7s-1.4,0-1.7-0.6
				C8.8,8.1,8.7,7.5,8.8,7z"/>
			<path id="Path_446" class="st8" d="M4.1,8.7c0.2-0.5,0.7-0.9,1.3-0.9c0.5,0,0.9,0.6,1,1.3s0.1,1.3-0.6,1.5s-1.3,0-1.5-0.5
				C4.2,9.6,4.1,9.1,4.1,8.7z"/>
			<path id="Path_447" class="st8" d="M0,10.3c0.2-0.4,0.6-0.7,1.1-0.7c0.4,0,0.7,0.5,0.8,1c0.1,0.5,0.1,1-0.5,1.2s-1,0-1.2-0.4
				C0.1,11,0,10.7,0,10.3z"/>
		</g>
		<g id="Group_372" transform="translate(25.409 13.399)">
			<path id="Path_448" class="st9" d="M29.4,2.3c-0.9-0.6-1.8-1.3-2.7-2C27.1,0.1,27.4,0,27.8,0c0.7,0,1.3,0.9,1.5,1.9
				C29.3,2,29.4,2.2,29.4,2.3z"/>
			<path id="Path_449" class="st9" d="M28.9,3.9c-1-0.6-2.1-1.2-3-1.8c-0.1-0.2-0.1-0.5,0-0.7C26,1,26.1,0.8,26.4,0.6
				c1,0.8,2,1.6,3,2.3C29.4,3.3,29.2,3.7,28.9,3.9z"/>
			<path id="Path_450" class="st9" d="M20.4,2.2C20.7,2,21,1.8,21.4,1.8c0.7,0,1.3,0.9,1.5,1.9C22,3.2,21.2,2.7,20.4,2.2z"/>
			<path id="Path_451" class="st9" d="M19.4,3.3c0,0,0-0.1,0-0.1c0.1-0.3,0.3-0.5,0.5-0.7c1,0.7,2,1.3,3,1.8c0,0.3,0,0.6-0.1,0.9
				C21.8,4.5,20.6,3.9,19.4,3.3z"/>
			<path id="Path_452" class="st9" d="M16.7,7.2c-1-0.5-2-1-2.9-1.5c0-0.1,0-0.2,0-0.4c0.1-0.4,0.4-0.6,0.7-0.8
				c0.7,0.4,1.5,0.8,2.2,1.2c0,0,0,0.1,0,0.1C17,6.2,16.9,6.7,16.7,7.2z"/>
			<path id="Path_453" class="st9" d="M15,4.2c0.2-0.1,0.3-0.1,0.5-0.1c0.4,0,0.8,0.4,1,0.9C16.1,4.8,15.5,4.5,15,4.2z"/>
			<path id="Path_454" class="st9" d="M9.8,6.1C9.9,6,10.1,6,10.3,6c0.4,0,0.8,0.4,1,0.9C10.8,6.7,10.2,6.4,9.8,6.1z"/>
			<path id="Path_455" class="st9" d="M11.3,8.9c-0.2-0.1-0.3-0.2-0.5-0.2c-0.7-0.3-1.4-0.7-2-1.1c0-0.2,0-0.3,0-0.5
				c0.1-0.3,0.3-0.5,0.6-0.7c0.7,0.4,1.4,0.8,2.1,1.2C11.6,7.9,11.5,8.5,11.3,8.9z"/>
			<path id="Path_456" class="st9" d="M5.2,7.8c0.1,0,0.1,0,0.2,0C5.7,7.8,6,8,6.1,8.3C5.8,8.1,5.5,7.9,5.2,7.8z"/>
			<path id="Path_457" class="st9" d="M6.4,10C5.6,9.7,4.8,9.2,4.1,8.8c0,0,0-0.1,0-0.1C4.2,8.4,4.4,8.2,4.7,8
				c0.6,0.3,1.2,0.6,1.8,0.9c0,0,0,0.1,0,0.1C6.5,9.4,6.5,9.7,6.4,10z"/>
			<path id="Path_458" class="st9" d="M1.9,11.5c-0.6-0.3-1.2-0.7-1.9-1c0-0.1,0-0.2,0-0.2c0.1-0.2,0.2-0.4,0.4-0.5
				c0.5,0.2,1,0.5,1.5,0.7c0,0,0,0.1,0,0.1C2,10.9,2,11.2,1.9,11.5z"/>
		</g>
		<path id="Path_459" class="st1" d="M28.8,40.6l-0.2-0.9l0,0c1.2-4.3,7.3-12.1,7.3-12.1c7.1-1.2,12.7-3.1,22.4-6.8
			c0.1,0.2,0.1,0.4,0.2,0.7c-0.4,1-15.3,17.9-20,20.8c-2.5,1.6-8.3,1.1-9.7-0.7c-0.1-0.3-0.2-0.6-0.2-0.9L28.8,40.6z"/>
		<path id="Path_460" class="st2" d="M58.1,20.8c0.7-0.3-15.3,18-20.1,21c-3,1.9-10.2,1.1-9.7-1.7c0.7-4.1,7.1-13,7.1-13
			C43.2,25.9,50.8,23.7,58.1,20.8z"/>
		<path id="Path_461" class="st3" d="M47.6,27.4c2-2.7,5.4-4,8.6-4.3c-2.5,2.9-6.8,7.7-10.7,11.7C45.5,32.1,46.2,29.5,47.6,27.4z"/>
		<path id="Path_462" class="st4" d="M28,40.1c0.7-4.1,7.1-13,7.1-13c0.9-0.2,1.7-0.3,2.6-0.5c-2.5,4-2.7,9.1-0.7,13.3
			c0.2,0.6,0.5,1.1,0.8,1.7l-0.1,0.1C34.7,43.6,27.5,42.8,28,40.1z"/>
	</g>
</g>
</svg>
